<svg height="431.133pt" viewBox="0 0 431.133 431.133" width="431.133pt" xmlns="http://www.w3.org/2000/svg"><path d="m29.722656 133.757812h312.105469c16.414063 0 29.722656 13.308594 29.722656 29.726563v237.792969c0 16.414062-13.308593 29.722656-29.722656 29.722656h-312.105469c-16.414062 0-29.722656-13.308594-29.722656-29.722656v-237.792969c0-16.417969 13.308594-29.726563 29.722656-29.726563zm0 0" fill="#c2d197"/><path d="m29.722656 133.757812h312.105469c16.414063 0 29.722656 13.308594 29.722656 29.726563v44.585937h-371.550781v-44.585937c0-16.417969 13.308594-29.726563 29.722656-29.726563zm0 0" fill="#9cb16a"/><path d="m371.550781 167.199219c0-18.46875-14.96875-33.441407-33.4375-33.441407h-33.136719c-1.332031-.003906-2.566406.707032-3.230468 1.867188l-44.132813 76.441406c-.289062.503906-.457031 1.066406-.492187 1.644532l-2.933594 48.878906-2.542969 42.304687c-.140625 2.046875 1.402344 3.824219 3.449219 3.96875.828125.054688 1.652344-.164062 2.339844-.628906l35.347656-23.351563 40.871094-26.980468c.484375-.320313.886718-.746094 1.175781-1.25l36.222656-62.703125c.332031-.570313.503907-1.222657.5-1.886719zm0 0" fill="#649454"/><path d="m29.722656 133.757812h312.105469c16.414063 0 29.722656 13.308594 29.722656 29.726563v37.152344h-371.550781v-37.152344c0-16.417969 13.308594-29.726563 29.722656-29.726563zm0 0" fill="#ff5e5b"/><path d="m367.175781 200.636719 4.375-7.570313v-29.582031c0-16.417969-13.304687-29.726563-29.722656-29.726563h-39.003906l-38.644531 66.878907zm0 0" fill="#9e0c09"/><path d="m81.742188 178.34375c12.3125 0 22.292968-9.980469 22.292968-22.292969v-22.292969h-44.585937v22.292969c0 12.3125 9.980469 22.292969 22.292969 22.292969zm0 0" fill="#9e0c09"/><path d="m185.777344 178.34375c12.308594 0 22.292968-9.980469 22.292968-22.292969v-22.292969h-44.585937v22.292969c0 12.3125 9.980469 22.292969 22.292969 22.292969zm0 0" fill="#9e0c09"/><path d="m289.8125 178.34375c12.308594 0 22.292969-9.980469 22.292969-22.292969v-22.292969h-44.589844v22.292969c0 12.3125 9.984375 22.292969 22.296875 22.292969zm0 0" fill="#9e0c09"/><path d="m81.742188 96.601562c12.3125 0 22.292968 9.984376 22.292968 22.292969v29.726563c0 12.3125-9.980468 22.292968-22.292968 22.292968s-22.292969-9.980468-22.292969-22.292968v-29.726563c0-12.308593 9.980469-22.292969 22.292969-22.292969zm0 0" fill="#649454"/><path d="m185.777344 96.601562c12.308594 0 22.292968 9.984376 22.292968 22.292969v29.726563c0 12.3125-9.984374 22.292968-22.292968 22.292968-12.3125 0-22.292969-9.980468-22.292969-22.292968v-29.726563c0-12.308593 9.980469-22.292969 22.292969-22.292969zm0 0" fill="#649454"/><path d="m289.8125 96.601562c12.308594 0 22.292969 9.984376 22.292969 22.292969v29.726563c0 12.3125-9.984375 22.292968-22.292969 22.292968-12.3125 0-22.296875-9.980468-22.296875-22.292968v-29.726563c0-12.308593 9.984375-22.292969 22.296875-22.292969zm0 0" fill="#649454"/><path d="m44.585938 297.242188h22.292968c4.105469 0 7.429688 3.324218 7.429688 7.429687v22.292969c0 4.105468-3.324219 7.429687-7.429688 7.429687h-22.292968c-4.101563 0-7.429688-3.324219-7.429688-7.429687v-22.292969c0-4.105469 3.328125-7.429687 7.429688-7.429687zm0 0" fill="#ff5e5b"/><path d="m44.585938 364.121094h22.292968c4.105469 0 7.429688 3.328125 7.429688 7.429687v22.292969c0 4.105469-3.324219 7.429688-7.429688 7.429688h-22.292968c-4.101563 0-7.429688-3.324219-7.429688-7.429688v-22.292969c0-4.101562 3.328125-7.429687 7.429688-7.429687zm0 0" fill="#ff5e5b"/><g fill="#649454"><path d="m107.75 230.363281h22.292969c4.105469 0 7.429687 3.324219 7.429687 7.429688v22.292969c0 4.105468-3.324218 7.429687-7.429687 7.429687h-22.292969c-4.105469 0-7.429688-3.324219-7.429688-7.429687v-22.292969c0-4.105469 3.324219-7.429688 7.429688-7.429688zm0 0"/><path d="m107.75 297.242188h22.292969c4.105469 0 7.429687 3.324218 7.429687 7.429687v22.292969c0 4.105468-3.324218 7.429687-7.429687 7.429687h-22.292969c-4.105469 0-7.429688-3.324219-7.429688-7.429687v-22.292969c0-4.105469 3.324219-7.429687 7.429688-7.429687zm0 0"/><path d="m107.75 364.121094h22.292969c4.105469 0 7.429687 3.328125 7.429687 7.429687v22.292969c0 4.105469-3.324218 7.429688-7.429687 7.429688h-22.292969c-4.105469 0-7.429688-3.324219-7.429688-7.429688v-22.292969c0-4.101562 3.324219-7.429687 7.429688-7.429687zm0 0"/><path d="m178.34375 230.363281h22.292969c4.105469 0 7.433593 3.324219 7.433593 7.429688v22.292969c0 4.105468-3.328124 7.429687-7.433593 7.429687h-22.292969c-4.101562 0-7.429688-3.324219-7.429688-7.429687v-22.292969c0-4.105469 3.328126-7.429688 7.429688-7.429688zm0 0"/><path d="m178.34375 297.242188h22.292969c4.105469 0 7.433593 3.324218 7.433593 7.429687v22.292969c0 4.105468-3.328124 7.429687-7.433593 7.429687h-22.292969c-4.101562 0-7.429688-3.324219-7.429688-7.429687v-22.292969c0-4.105469 3.328126-7.429687 7.429688-7.429687zm0 0"/><path d="m241.507812 230.363281h22.292969c4.105469 0 7.429688 3.324219 7.429688 7.429688v22.292969c0 4.105468-3.324219 7.429687-7.429688 7.429687h-22.292969c-4.101562 0-7.429687-3.324219-7.429687-7.429687v-22.292969c0-4.105469 3.328125-7.429688 7.429687-7.429688zm0 0"/><path d="m241.507812 297.242188h22.292969c4.105469 0 7.429688 3.324218 7.429688 7.429687v22.292969c0 4.105468-3.324219 7.429687-7.429688 7.429687h-22.292969c-4.101562 0-7.429687-3.324219-7.429687-7.429687v-22.292969c0-4.105469 3.328125-7.429687 7.429687-7.429687zm0 0"/></g><path d="m304.671875 230.363281h22.292969c4.105468 0 7.433594 3.324219 7.433594 7.429688v22.292969c0 4.105468-3.328126 7.429687-7.433594 7.429687h-22.292969c-4.101563 0-7.429687-3.324219-7.429687-7.429687v-22.292969c0-4.105469 3.324218-7.429688 7.429687-7.429688zm0 0" fill="#ff5e5b"/><path d="m304.671875 297.242188h22.292969c4.105468 0 7.433594 3.324218 7.433594 7.429687v22.292969c0 4.105468-3.328126 7.429687-7.433594 7.429687h-22.292969c-4.101563 0-7.429687-3.324219-7.429687-7.429687v-22.292969c0-4.105469 3.324218-7.429687 7.429687-7.429687zm0 0" fill="#ff5e5b"/><path d="m178.34375 364.121094h22.292969c4.105469 0 7.433593 3.328125 7.433593 7.429687v22.292969c0 4.105469-3.328124 7.429688-7.433593 7.429688h-22.292969c-4.101562 0-7.429688-3.324219-7.429688-7.429688v-22.292969c0-4.101562 3.328126-7.429687 7.429688-7.429687zm0 0" fill="#649454"/><path d="m263.800781 297.242188h-11.695312l-.460938 7.652343c-.144531 2.046875 1.398438 3.824219 3.445313 3.964844.832031.058594 1.65625-.164063 2.34375-.628906l12.15625-8.023438c-1.359375-1.839843-3.5-2.9375-5.789063-2.964843zm0 0" fill="#075057"/><path d="m271.234375 260.085938v-22.292969c0-4.101563-3.328125-7.429688-7.433594-7.429688h-7.683593l-1.929688 32.226563-.296875 4.925781h9.910156c4.105469 0 7.433594-3.324219 7.433594-7.429687zm0 0" fill="#075057"/><path d="m326.964844 230.363281h-22.292969c-4.101563 0-7.429687 3.324219-7.429687 7.429688v22.292969c0 4.105468 3.328124 7.429687 7.429687 7.429687h14.433594l15.292969-10.097656v-19.625c0-4.105469-3.328126-7.429688-7.433594-7.429688zm0 0" fill="#eb120d"/><path d="m431 0h-63.824219l-110.003906 190.539062 77.226563 44.585938 96.601562-167.324219zm0 0" fill="#eb120d"/><path d="m251.675781 282.148438 5.496094-91.609376 77.226563 44.585938-76.585938 50.570312c-1.824219 1.207032-4.28125.703126-5.488281-1.121093-.472657-.714844-.703125-1.566407-.648438-2.425781zm0 0" fill="#ff5e5b"/><path d="m251.644531 282.640625 2.542969-42.359375 38.640625 22.292969-35.402344 23.371093c-1.703125 1.144532-4.011719.691407-5.15625-1.011718-.453125-.675782-.671875-1.480469-.625-2.292969zm0 0" fill="#9e0c09"/><path d="m431 0h-29.5l-118.585938 205.402344 25.742188 14.859375 122.34375-211.910157zm0 0" fill="#649454"/></svg>