<svg id="FilledOutline" height="512" viewBox="0 0 512 512" width="512" xmlns="http://www.w3.org/2000/svg"><rect fill="#e3e4e2" height="352" rx="24" width="368" x="32" y="24"/><path d="m376 24h-320a24 24 0 0 0 -24 24v40h368v-40a24 24 0 0 0 -24-24z" fill="#0093b9"/><path d="m200 208h112v24h24l24-40-24-40h-24v24h-72a8 8 0 0 0 -8 8 8 8 0 0 1 -8 8h-24a8 8 0 0 0 -8 8 8 8 0 0 0 8 8z" fill="#f6bc1b"/><path d="m208 176h-88v24h-24l-24-40 24-40h24v24h112a8 8 0 0 1 8 8 8 8 0 0 1 -8 8h-8a8 8 0 0 0 -8 8 8 8 0 0 1 -8 8z" fill="#eb5849"/><path d="m457.711 364.934 22.289-20.122c-5.368-12.961-5.382-12.994-10.751-25.955l-29.989 1.532-15.649-15.649 1.531-29.99-25.954-10.75-20.123 22.289h-22.131l-20.122-22.289-25.955 10.75 1.532 29.99-15.649 15.649-29.99-1.532-10.75 25.955 22.289 20.122v22.131l-22.289 20.123 10.75 25.954 29.99-1.531 15.649 15.649-1.532 29.99 25.955 10.75 20.122-22.289h22.131l20.123 22.289 25.954-10.75-1.531-29.99 15.649-15.649 29.989 1.531c5.369-12.96 5.383-12.993 10.751-25.954l-22.289-20.123zm-89.711 59.066a48 48 0 1 1 48-48 48 48 0 0 1 -48 48z" fill="#0093b9"/><path d="m40 352v-256h352v144h16v-192a32.036 32.036 0 0 0 -32-32h-320a32.036 32.036 0 0 0 -32 32v304a32.036 32.036 0 0 0 32 32h192v-16h-192a16.019 16.019 0 0 1 -16-16zm16-320h320a16.019 16.019 0 0 1 16 16v32h-352v-32a16.019 16.019 0 0 1 16-16z"/><path d="m56 48h16v16h-16z"/><path d="m88 48h16v16h-16z"/><path d="m120 48h16v16h-16z"/><path d="m112 280v-1.167a22.874 22.874 0 0 0 -16-21.788v-9.045h-16v9.045a22.834 22.834 0 0 0 -3.378 42.21l15.6 7.8a6.833 6.833 0 0 1 -3.055 12.945h-2.334a6.84 6.84 0 0 1 -6.833-6.833v-1.167h-16v1.167a22.874 22.874 0 0 0 16 21.788v9.045h16v-9.045a22.834 22.834 0 0 0 3.378-42.21l-15.6-7.8a6.833 6.833 0 0 1 3.055-12.945h2.334a6.84 6.84 0 0 1 6.833 6.833v1.167z"/><path d="m128 256h16v16h-16z"/><path d="m160 256h120v16h-120z"/><path d="m128 288h120v16h-120z"/><path d="m128 320h96v16h-96z"/><path d="m465.711 383.51v-15.02l19.65-17.74a8 8 0 0 0 2.03-9l-10.75-25.95a8.006 8.006 0 0 0 -7.8-4.928l-26.441 1.347-10.618-10.619 1.35-26.44a8 8 0 0 0 -4.928-7.8l-25.954-10.75a8 8 0 0 0 -9 2.03l-17.74 19.65h-15.02l-17.74-19.65a8 8 0 0 0 -9-2.03l-25.95 10.749a8 8 0 0 0 -4.928 7.8l1.35 26.44-10.622 10.62-26.439-1.351a7.965 7.965 0 0 0 -7.8 4.928l-10.75 25.954a8 8 0 0 0 2.03 9l19.65 17.74v15.02l-19.65 17.74a8 8 0 0 0 -2.03 9l10.75 25.954a8.015 8.015 0 0 0 7.8 4.928l26.439-1.351 10.62 10.621-1.35 26.439a8 8 0 0 0 4.927 7.8l25.955 10.751a8 8 0 0 0 9-2.03l17.74-19.65h15.02l17.74 19.65a8 8 0 0 0 9 2.03l25.955-10.751a8 8 0 0 0 4.927-7.8l-1.35-26.439 10.62-10.621 26.439 1.351a7.992 7.992 0 0 0 7.8-4.928l10.75-25.954a8 8 0 0 0 -2.03-9zm-1.692 41.355-24.351-1.244a7.986 7.986 0 0 0 -6.065 2.333l-15.649 15.646a8 8 0 0 0 -2.333 6.064l1.244 24.351-15.522 6.429-16.343-18.094a8 8 0 0 0 -5.938-2.639h-22.13a8 8 0 0 0 -5.932 2.639l-16.34 18.1-15.522-6.429 1.244-24.351a8 8 0 0 0 -2.333-6.064l-15.649-15.652a7.972 7.972 0 0 0 -6.065-2.333l-24.351 1.244-6.429-15.522 18.095-16.343a8 8 0 0 0 2.639-5.939v-22.13a8 8 0 0 0 -2.639-5.931l-18.1-16.339 6.429-15.522 24.351 1.244a8.032 8.032 0 0 0 6.065-2.333l15.649-15.65a8 8 0 0 0 2.333-6.064l-1.244-24.352 15.522-6.428 16.345 18.094a8 8 0 0 0 5.938 2.639h22.13a8 8 0 0 0 5.932-2.639l16.34-18.1 15.522 6.428-1.244 24.352a8 8 0 0 0 2.333 6.064l15.649 15.65a8 8 0 0 0 6.065 2.333l24.351-1.244 6.429 15.522-18.095 16.345a8 8 0 0 0 -2.639 5.939v22.13a8 8 0 0 0 2.639 5.931l18.1 16.339z"/><path d="m312 240h24a8 8 0 0 0 6.86-3.884l24-40a8 8 0 0 0 0-8.232l-24-40a8 8 0 0 0 -6.86-3.884h-24a8 8 0 0 0 -8 8v16h-72v16h80a8 8 0 0 0 8-8v-16h11.471l19.2 32-19.2 32h-11.471v-16a8 8 0 0 0 -8-8h-120v16h112v16a8 8 0 0 0 8 8z"/><path d="m160 200h16v16h-16z"/><path d="m216 168h-96a8 8 0 0 0 -8 8v16h-11.471l-19.2-32 19.2-32h11.471v16a8 8 0 0 0 8 8h120v-16h-112v-16a8 8 0 0 0 -8-8h-24a8 8 0 0 0 -6.86 3.884l-24 40a8 8 0 0 0 0 8.232l24 40a8 8 0 0 0 6.86 3.884h24a8 8 0 0 0 8-8v-16h88z"/><path d="m256 136h16v16h-16z"/><path d="m64 400h128v16h-128z"/><path d="m208 400h16v16h-16z"/><path d="m368 320a56 56 0 1 0 56 56 56.063 56.063 0 0 0 -56-56zm0 96a40 40 0 1 1 40-40 40.045 40.045 0 0 1 -40 40z"/></svg>